<svg width="12" height="12" viewBox="0 0 12 12" fill="none" xmlns="http://www.w3.org/2000/svg">
<g clip-path="url(#clip0)">
<path d="M6.66267 5.99976L11.8625 0.799965C12.0455 0.616918 12.0455 0.320105 11.8625 0.137059C11.6794 -0.0460117 11.3826 -0.0460117 11.1996 0.137059L5.99976 5.33686L0.799965 0.137059C0.616895 -0.0460117 0.320105 -0.0460117 0.137059 0.137059C-0.0460117 0.320105 -0.0460117 0.616918 0.137059 0.799965L5.33686 5.99976L0.137059 11.1996C-0.0460117 11.3826 -0.0460117 11.6794 0.137059 11.8625C0.320105 12.0455 0.616895 12.0455 0.799965 11.8625L5.99976 6.66267L11.1996 11.8625C11.3826 12.0455 11.6794 12.0455 11.8625 11.8625C12.0455 11.6794 12.0455 11.3826 11.8625 11.1996L6.66267 5.99976Z" fill="black"/>
</g>
<defs>
<clipPath id="clip0">
<rect width="12" height="12" fill="white"/>
</clipPath>
</defs>
</svg>
