<svg width="14" height="14" viewBox="0 0 14 14" fill="none" xmlns="http://www.w3.org/2000/svg">
<g clip-path="url(#clip0)">
<path d="M7.7734 6.99975L13.8398 0.933325C14.0534 0.719771 14.0534 0.373489 13.8398 0.159935C13.6262 -0.0536473 13.28 -0.0536473 13.0664 0.159935L7.00001 6.22636L0.933577 0.159935C0.719995 -0.0536473 0.373741 -0.0536473 0.160187 0.159935C-0.0533955 0.373489 -0.0533955 0.719771 0.160187 0.933325L6.22662 6.99975L0.160187 13.0662C-0.0533955 13.2798 -0.0533955 13.626 0.160187 13.8396C0.373741 14.0531 0.719995 14.0532 0.933577 13.8396L7.00001 7.77315L13.0664 13.8396C13.28 14.0531 13.6262 14.0532 13.8398 13.8396C14.0534 13.626 14.0534 13.2797 13.8398 13.0662L7.7734 6.99975Z" fill="white"/>
</g>
<defs>
<clipPath id="clip0">
<rect width="14" height="14" fill="white"/>
</clipPath>
</defs>
</svg>
