<svg width="18" height="18" viewBox="0 0 18 18" fill="none" xmlns="http://www.w3.org/2000/svg">
<path d="M8.84712 0.553711C5.61281 0.553711 2.98145 3.18507 2.98145 6.41938C2.98145 10.4846 8.85289 17.4287 8.85289 17.4287C8.85289 17.4287 14.7128 10.2846 14.7128 6.41938C14.7128 3.18507 12.0815 0.553711 8.84712 0.553711ZM10.6169 8.13685C10.1289 8.62475 9.48807 8.86875 8.84712 8.86875C8.20628 8.86875 7.56522 8.62475 7.07743 8.13685C6.10153 7.16106 6.10153 5.57326 7.07743 4.59737C7.54998 4.12461 8.17857 3.86423 8.84712 3.86423C9.51568 3.86423 10.1442 4.12471 10.6169 4.59737C11.5928 5.57326 11.5928 7.16106 10.6169 8.13685Z" fill="white" fill-opacity="0.5"/>
</svg>
